<svg width="828" height="175" viewBox="0 0 828 175" xmlns="http://www.w3.org/2000/svg"><mask id="satori_om-id"><rect x="0" y="0" width="828" height="175" fill="#fff"/></mask><defs><clipPath id="satori_bc-id-0"><path x="3" y="0" width="825" height="175" d="M15,0 h804.53488 a8.46512,8.46512 0 0 1 8.46512,8.46512 v158.06975999999997 a8.46512,8.46512 0 0 1 -8.46512,8.46512 h-804.53488 a12,12 0 0 1 -12,-12 v-151 a12,12 0 0 1 12,-12"/></clipPath></defs><mask id="satori_om-id-0"><rect x="3" y="3" width="822" height="169" fill="#fff"/><path width="825" height="175" fill="none" stroke="#000" stroke-width="6" d="M6.515000000000001,3.5150000000000006 A12,12 0 0 1 15,0 h804.53488 a8.46512,8.46512 0 0 1 8.46512,8.46512 v158.06975999999997 a8.46512,8.46512 0 0 1 -8.46512,8.46512 h-804.53488 A12,12 0 0 1 6.515000000000001,171.485"/></mask><path x="3" y="0" width="825" height="175" fill="rgba(255, 255, 255, 0.95)" d="M15,0 h804.53488 a8.46512,8.46512 0 0 1 8.46512,8.46512 v158.06975999999997 a8.46512,8.46512 0 0 1 -8.46512,8.46512 h-804.53488 a12,12 0 0 1 -12,-12 v-151 a12,12 0 0 1 12,-12"/><path width="825" height="175" clip-path="url(#satori_bc-id-0)" fill="none" stroke="rgb(200, 201, 207)" stroke-width="6" d="M6.515000000000001,3.5150000000000006 A12,12 0 0 1 15,0 h804.53488 a8.46512,8.46512 0 0 1 8.46512,8.46512 v158.06975999999997 a8.46512,8.46512 0 0 1 -8.46512,8.46512 h-804.53488 A12,12 0 0 1 6.515000000000001,171.485"/><defs><pattern id="satori_pattern_id-0-0_0" x="0" y="0" width="1" height="1" patternUnits="objectBoundingBox"><linearGradient id="satori_biid-0-0_0" x1="0.5005991748178135" y1="-0.0005977422054006963" x2="0.4994008251821865" y2="1.0005977422054007" spreadMethod="pad"><stop offset="0%" stop-color="rgb(91, 95, 114)"/><stop offset="10%" stop-color="rgb(91, 95, 114)"/><stop offset="90%" stop-color="rgb(69, 73, 94)"/><stop offset="100%" stop-color="rgb(69, 73, 94)"/></linearGradient><rect x="0" y="0" width="12" height="175" fill="url(#satori_biid-0-0_0)"/></pattern></defs><mask id="satori_om-id-0-0"><rect x="0" y="0" width="12" height="175" fill="#fff"/></mask><path x="0" y="0" width="12" height="175" fill="url(#satori_pattern_id-0-0_0)" d="M8.46512,0 h3.5348799999999994 a0,0 0 0 1 0,0 v175 a0,0 0 0 1 0,0 h-3.5348799999999994 a8.46512,8.46512 0 0 1 -8.46512,-8.46512 v-158.06976 a8.46512,8.46512 0 0 1 8.46512,-8.46512"/></svg>